<?xml version="1.0" encoding="UTF-8" standalone="no"?>
<!-- Created with Inkscape (http://www.inkscape.org/) -->

<svg
   width="210mm"
   height="297mm"
   viewBox="0 0 210 297"
   version="1.1"
   id="svg1"
   inkscape:version="1.3 (0e150ed6c4, 2023-07-21)"
   sodipodi:docname="PoiYau.svg"
   xmlns:inkscape="http://www.inkscape.org/namespaces/inkscape"
   xmlns:sodipodi="http://sodipodi.sourceforge.net/DTD/sodipodi-0.dtd"
   xmlns="http://www.w3.org/2000/svg"
   xmlns:svg="http://www.w3.org/2000/svg">
  <sodipodi:namedview
     id="namedview1"
     pagecolor="#ffffff"
     bordercolor="#000000"
     borderopacity="0.25"
     inkscape:showpageshadow="2"
     inkscape:pageopacity="0.0"
     inkscape:pagecheckerboard="0"
     inkscape:deskcolor="#d1d1d1"
     inkscape:document-units="mm"
     inkscape:zoom="0.69575617"
     inkscape:cx="396.6907"
     inkscape:cy="791.22546"
     inkscape:window-width="1920"
     inkscape:window-height="991"
     inkscape:window-x="-9"
     inkscape:window-y="-9"
     inkscape:window-maximized="1"
     inkscape:current-layer="layer1" />
  <defs
     id="defs1" />
  <g
     inkscape:label="圖層 1"
     inkscape:groupmode="layer"
     id="layer1">
    <path
       id="path5"
       style="fill:#000000"
       d="m 128.81107,240.55902 c -0.51391,0.007 -0.98683,0.16373 -1.31568,0.5271 -0.42492,0.46952 -0.43851,0.61163 -0.1173,1.21181 0.20007,0.37383 0.66612,0.84389 1.03559,1.0449 v 5.2e-4 c 0.90762,0.49358 2.7701,0.48937 3.18224,-0.007 1.01301,-1.2206 -1.10606,-2.79971 -2.78485,-2.77709 z m -2.74815,3.48247 c -0.10419,0.005 -0.19015,0.0261 -0.25321,0.0651 -0.12136,0.075 -0.28877,0.79672 -0.37207,1.60352 -0.0833,0.8068 -0.64579,3.45943 -1.25006,5.89473 -1.21251,4.88668 -1.48858,5.35368 -3.16518,5.35368 -1.07889,0 -1.97375,-0.68423 -2.6572,-2.03192 -0.20812,-0.41039 -0.58406,-1.02205 -0.83509,-1.35961 -0.34705,-0.46667 -0.39603,-0.77232 -0.20516,-1.27434 0.13806,-0.36313 0.25115,-1.54681 0.25115,-2.63033 0,-3.33886 -1.45601,-5.4038 -3.8101,-5.4038 -3.87523,0 -8.00519,5.6575 -9.56066,13.09687 -0.52012,2.48768 -0.50857,7.70526 0.0212,9.52758 0.63622,2.18851 1.94913,3.83691 3.94033,4.94751 0.52554,0.29313 1.41926,0.45602 2.54403,0.46302 1.47097,0.009 1.91838,-0.1057 2.9471,-0.7581 1.66344,-1.05493 3.03445,-3.12275 3.9641,-5.97793 0.56802,-1.74452 0.99386,-3.75903 1.00666,-4.7625 0.007,-0.58209 0.10083,-1.18986 0.20774,-1.35082 0.2269,-0.34161 3.50394,-0.76146 3.49694,-0.44803 -0.003,0.11637 -0.17864,1.34245 -0.3917,2.7249 -0.46625,3.02528 -0.49346,4.64526 -0.10594,6.29935 1.16284,4.96348 4.26315,5.7093 7.78764,1.87379 2.67587,-2.91199 4.58289,-6.67667 5.69681,-11.24789 0.64103,-2.6306 -0.35928,-3.05973 -1.3131,-0.56328 -1.93933,5.07589 -3.85988,8.15785 -5.67356,9.10488 -0.67888,0.35452 -0.80057,0.34826 -1.25677,-0.0646 -0.41611,-0.37654 -0.50488,-0.82613 -0.50488,-2.55178 0,-2.94977 1.13206,-7.30969 3.7636,-14.49214 0.78596,-2.14518 0.59181,-3.01574 -1.00046,-4.48345 -0.91995,-0.84799 -2.54284,-1.59082 -3.27215,-1.55443 z m -11.01225,4.97955 c 0.808,0 1.35757,1.25244 1.00976,2.30166 -0.19873,0.59951 -0.43864,0.76631 -1.25625,0.87334 -1.51796,0.1987 -1.7723,0.84087 -0.75706,1.91047 1.46495,1.54339 1.77171,2.45327 1.76371,5.23328 -0.0109,3.80185 -1.41679,7.79977 -3.30005,9.38444 -1.13615,0.95601 -2.88366,0.94279 -3.64681,-0.0274 -0.46157,-0.58677 -0.54829,-1.06997 -0.54829,-3.05356 0,-1.2962 0.17959,-3.22781 0.39946,-4.29225 1.16512,-5.6407 4.60221,-12.32999 6.33553,-12.32999 z" />
    <path
       style="fill:#000000"
       d="m 99.687603,296.88095 c -0.913724,-0.70667 -1.951388,-3.02899 -2.144658,-4.79983 -0.14108,-1.29258 -0.622185,-1.05012 -1.515035,0.76349 -1.03055,2.09336 -2.16936,3.05297 -3.62144,3.05158 -1.5152,-10e-4 -2.5774,-0.77768 -3.4195,-2.49888 -0.62581,-1.27909 -0.74586,-1.90956 -0.86117,-4.52271 -0.0818,-1.85454 -0.004,-3.83364 0.2005,-5.08453 0.36358,-2.2261 1.19909,-5.70072 1.57406,-6.54601 1.41246,-3.18407 2.37186,-4.79819 3.67783,-6.18764 2.91929,-3.10589 5.438886,-3.20384 6.9358,-0.26964 0.28994,0.56833 0.63088,1.03332 0.75764,1.03332 0.12676,0 0.42103,-0.47625 0.65394,-1.05833 0.2329,-0.58208 0.5494,-1.05833 0.70332,-1.05833 0.89877,0 3.42859,1.8856 3.42859,2.55549 0,0.18691 -0.30727,1.02784 -0.68283,1.86873 -1.69244,3.78949 -3.81509,12.03512 -3.81509,14.82008 0,1.78553 0.57986,3.24528 1.28912,3.24528 1.42922,0 4.13846,-3.71757 5.72218,-7.85185 0.54762,-1.42956 1.20043,-2.83732 1.45068,-3.12836 0.25025,-0.29104 0.52738,-0.7345 0.61584,-0.98546 0.42669,-1.21056 2.29927,-9.54755 2.29927,-10.23669 0,-0.43184 0.11631,-0.85705 0.25848,-0.94491 0.55258,-0.34151 2.40481,0.45526 3.62372,1.55881 1.19947,1.08595 1.27717,1.23615 1.27717,2.46878 0,0.72187 -0.14035,1.5984 -0.3119,1.94785 -0.78659,1.60233 -2.48958,6.86138 -3.2473,10.02808 -0.62617,2.61687 -0.72528,6.26257 -0.19016,6.99439 0.92728,1.26813 3.23581,-1.58836 4.83924,-5.98791 1.22728,-3.36748 2.81937,-9.18616 3.76837,-13.77251 0.54098,-2.61444 0.79266,-3.37334 1.11876,-3.37343 0.23142,-7e-5 1.14842,0.36349 2.03777,0.8079 2.57293,1.28571 3.24448,2.90169 2.21147,5.3216 -0.867,2.03103 -2.88877,8.22245 -3.45679,10.58601 -0.70301,2.92525 -0.73269,5.49187 -0.0729,6.30664 0.45802,0.56564 0.5143,0.57295 1.29636,0.16854 1.67447,-0.86591 3.57975,-3.8577 5.58569,-8.77102 1.3986,-3.42571 2.26591,-2.06699 1.06247,1.66446 -1.81142,5.61662 -4.57277,9.9393 -7.4973,11.73642 -1.17099,0.71958 -2.82333,0.64017 -3.80125,-0.1827 -0.81306,-0.68414 -1.88729,-3.06802 -1.88729,-4.18818 0,-1.07616 -0.33117,-0.98655 -1.21738,0.32939 -1.13924,1.69167 -2.8815,3.15911 -3.99983,3.36891 -3.20687,0.60162 -5.19506,-1.68299 -5.43564,-6.24601 l -0.0628,-1.19063 -0.76217,1.45521 c -1.55397,2.96699 -3.69684,5.39224 -5.786,6.54844 -1.19658,0.66222 -1.97556,0.73897 -2.599837,0.25616 z m -4.602543,-6.81694 c 0.62779,-0.99446 3.034932,-7.25715 3.034932,-7.89599 0,-0.16551 0.11436,-0.50768 0.25413,-0.76036 0.429167,-0.77591 1.333361,-4.86165 1.333361,-6.02505 0,-1.39883 -0.777284,-2.26245 -1.512771,-1.68079 -1.285262,1.01644 -2.283332,2.87981 -3.493452,6.52219 -1.9773,5.95152 -2.67632,10.58284 -1.68133,11.13967 0.63689,0.35642 1.27201,-0.0433 2.06513,-1.29967 z"
       id="path4" />
    <path
       style="fill:#000000"
       d="m 76.489625,296.40001 c -0.80037,-0.27674 -1.4688,-0.50651 -1.48541,-0.51061 -0.19989,-0.0493 -0.92377,-2.68417 -1.14265,-4.15917 -0.65209,-4.39433 -0.08,-9.67525 1.97236,-18.20556 l 0.89119,-3.70417 0.0969,-11.97239 c 0.0725,-8.94879 0.0196,-11.9724 -0.20939,-11.9724 -0.16848,0 -0.65205,0.16561 -1.07459,0.36802 -4.09568,1.96197 -9.69352,3.54267 -16.51096,4.6623 -1.68457,0.27666 -9.85146,1.18092 -14.2875,1.58195 -16.54358,1.49558 -22.342099,2.45161 -27.648959,4.55858 -4.88004,1.93752 -6.86907,3.73337 -7.8220496,7.06236 l -0.41372,1.44521 -0.98716,-1.62504 c -1.43072,-2.35521 -2.97393,-3.61756 -4.96153,-4.0585 l -1.61747,-0.35884 0.14948,-1.2622 c 0.49407,-4.17162 7.399,-8.36221 16.6903296,-10.12932 4.96832,-0.94493 9.029779,-1.1862 19.955579,-1.18546 13.49086,9.2e-4 21.07912,-0.37601 27.293,-1.35572 4.96241,-0.78239 8.34544,-1.59718 11.05779,-2.66322 l 1.40051,-0.55045 0.62863,0.59058 c 1.89898,1.78399 3.1804,7.91083 3.70785,17.72832 0.0819,1.52352 0.23996,2.86117 0.35136,2.97257 0.30855,0.30855 5.22683,-5.80436 6.64802,-8.26279 0.20819,-0.36014 0.71991,-1.20089 1.13715,-1.86833 0.41723,-0.66744 1.16963,-2.30566 1.67198,-3.64049 1.07094,-2.84562 1.17666,-4.5485 0.38421,-6.18867 -0.29104,-0.60239 -0.52916,-1.13242 -0.52916,-1.17785 0,-0.0454 0.48899,-0.0826 1.08665,-0.0826 2.71225,0 7.380015,3.48853 7.380015,5.51558 0,1.67518 -1.549995,5.32338 -3.558265,8.37504 -2.09291,3.18029 -6.61493,8.14744 -10.40676,11.43119 -3.54559,3.0705 -3.16321,2.39542 -4.02086,7.09871 -1.20976,6.63425 -1.39903,8.45742 -1.26256,12.16176 0.17631,4.78598 0.85376,6.55738 2.92487,7.64804 l 1.00094,0.5271 -0.73921,0.38936 c -2.70083,1.42262 -5.2287,1.68911 -7.75066,0.8171 z"
       id="path2" />
    <path
       style="fill:#000000"
       d="m 91.655959,270.12339 c -1.40718,-0.54135 -1.63897,-0.8379 -2.2623,-2.89437 -0.4746,-1.56578 -0.48401,-9.76184 -0.0141,-12.30312 1.14726,-6.20472 3.16101,-13.46117 5.21872,-18.80539 1.42756,-3.7076 3.57544,-9.01617 4.38107,-10.82794 0.12941,-0.29104 0.650924,-1.69002 1.158891,-3.10885 1.0332,-2.8858 0.99833,-2.9463 -1.111521,-1.92847 -2.62559,1.26663 -7.5128,2.81939 -12.11059,3.84777 -3.98756,0.89189 -10.77718,1.84274 -18.9177,2.64933 -1.52797,0.15139 -3.73063,0.38658 -4.8948,0.52263 -1.16416,0.13604 -3.36682,0.37856 -4.89479,0.53892 -6.16647,0.64718 -13.08557,1.9847 -17.06562,3.29894 -2.73518,0.90317 -5.71427,2.57387 -7.26502,4.07429 -1.40541,1.3598 -1.91048,2.24458 -2.54542,4.45909 -0.1765,0.61555 -0.50598,0.32726 -1.16888,-1.02275 -1.08198,-2.20347 -3.66454,-4.20277 -5.42886,-4.20277 -0.80447,0 -0.91831,-0.42801 -0.49628,-1.86593 0.65027,-2.21559 4.12227,-5.04129 8.31056,-6.7636 0.9431,-0.38782 2.07192,-0.858 2.50848,-1.04484 0.97812,-0.41863 4.39872,-1.32718 6.87917,-1.8272 5.29369,-1.06712 10.28912,-1.41128 23.41562,-1.61324 12.03036,-0.18508 21.96676,-0.94264 26.9875,-2.05755 2.6956,-0.59858 4.57596,-1.10323 6.61712,-1.77588 3.379151,-1.11358 4.352261,-1.01185 5.154121,0.53878 0.77491,1.4985 0.51642,3.77602 -1.04006,9.16393 -1.22544,4.24203 -1.53493,5.65006 -1.12246,5.10681 0.046,-0.0606 0.78088,-1.12227 1.633,-2.3592 3.51796,-5.10669 8.31895,-10.3716 10.9833,-12.04463 1.43939,-0.90384 3.57603,-1.7137 4.5212,-1.7137 1.01633,0 2.4187,1.05902 2.99036,2.25822 0.69494,1.4578 0.65702,4.95398 -0.083,7.65133 -2.71123,9.8825 -11.45991,17.73218 -21.45151,19.24716 -1.091411,0.16549 -2.121891,0.40514 -2.289951,0.53257 -0.16807,0.12742 -0.45202,1.03016 -0.631,2.00609 -0.17898,0.97593 -0.4247,2.3102 -0.54603,2.96505 -1.27972,6.90635 -1.29255,12.23207 -0.037,15.34583 0.36103,0.89531 1.59588,2.09253 2.35475,2.283 0.818071,0.20532 0.782071,0.4176 -0.16578,0.97751 -2.16761,1.28044 -5.29816,1.56664 -7.57122,0.69219 z m 10.707381,-29.28894 c 2.5109,-1.54706 4.57286,-3.25754 7.71645,-6.40113 4.92267,-4.92267 8.86149,-10.45036 9.4136,-13.21093 0.47757,-2.38782 -0.88368,-2.82758 -3.50607,-1.13264 -1.87992,1.21505 -4.80208,4.43887 -8.29316,9.14927 -2.94238,3.97005 -8.474931,12.43691 -8.474931,12.9698 0,0.34929 1.192881,-0.17214 3.144111,-1.37437 z"
       id="path1" />
  </g>
</svg>
